<svg version="1" xmlns="http://www.w3.org/2000/svg" width="518.667" height="518.667" viewBox="0 0 389.000000 389.000000"><path d="M181 12c-18.9 1.6-22.3 2.6-22.2 7.1 0 3.6 92 161.8 94.8 163.1 1.8.8 2.8.7 4.4-.3 2.9-2 66-111.8 66-114.9 0-2.8-4.1-7.2-14.5-15.5-28.2-22.7-63.4-36.4-100.9-39.5-13.8-1.1-14.6-1.1-27.6 0zM136.5 21.1C118.8 27 97.7 38.4 81.9 50.6c-24.4 18.8-46.4 48.1-57.8 77.2-2.6 6.6-2.6 8.4-.1 10.7 1.8 1.7 6.5 1.7 95.2 1 60.6-.5 93.7-1.1 94.6-1.7.6-.6 1.2-2.2 1.2-3.6 0-3-62-110.7-65.6-114-1.4-1.2-2.8-2.2-3.2-2.2-.4 0-4.7 1.4-9.7 3.1zM327.8 76.7c-1.4 1.6-35.4 60.4-78 134.7-8.1 14.2-14.8 26.7-14.8 27.6 0 .9.8 2.4 1.8 3.3 1.7 1.5 7.8 1.7 66.9 1.7 60.5 0 65.2-.1 67.2-1.7 2.8-2.3 5.6-15.6 7.1-33.7 3.7-44.4-10.9-92.3-38.7-126.9-5.7-7.1-8.6-8.3-11.5-5zM19.1 147.7c-2.9 2.4-5.7 16.3-7.1 34.4C9 222 20.1 263.6 42.5 297c11.7 17.4 15.8 20.8 19.7 16.2.8-.9 18-30.5 38.3-65.7 20.3-35.2 40.6-70.5 45.2-78.4 9.6-16.5 10.3-18.4 7.8-21.1-1.8-1.9-3.5-2-67-2-60.7 0-65.4.1-67.4 1.7zM130.8 208.7c-.8 1-5.1 8.1-9.5 15.8-53.3 92.4-54.8 95.1-54.8 98.4 0 3.1.9 4.3 8.5 10.9 36.5 31.6 86 48 133.6 44.2 19-1.6 23.4-3 23.4-7.7 0-.7-14.3-25.9-31.9-56-17.5-30.2-34.3-59.1-37.3-64.3-25.9-44.6-24.8-43-28.3-43-1.2 0-2.9.8-3.7 1.7zM255.6 250.7c-55.5.2-78.3.6-79.3 1.4-3.4 2.9-4.9-.1 39.4 75.8 16.8 28.7 25.5 42.7 26.9 43.2 3 1.1 20.2-4.9 33.9-11.7 39.3-19.7 70.3-52.4 87.2-91.9 7.2-16.9 6.6-17.6-15.2-17.3-8.2.2-50.1.4-92.9.5z"/></svg>