<?xml version="1.0" standalone="no"?>
<!DOCTYPE svg PUBLIC "-//W3C//DTD SVG 20010904//EN"
 "http://www.w3.org/TR/2001/REC-SVG-20010904/DTD/svg10.dtd">
<svg version="1.0" xmlns="http://www.w3.org/2000/svg"
 width="169.000000pt" height="169.000000pt" viewBox="0 0 169.000000 169.000000"
 preserveAspectRatio="xMidYMid meet">
<metadata>
Created by potrace 1.11, written by Peter Selinger 2001-2013
</metadata>
<g transform="translate(0.000000,169.000000) scale(0.100000,-0.100000)"
fill="#000000" stroke="none">
<path d="M624 1636 c-289 -82 -512 -312 -584 -601 -19 -78 -22 -107 -17 -225
3 -102 10 -152 27 -205 115 -360 418 -585 790 -585 240 0 435 83 598 254 104
110 171 234 207 383 14 56 16 102 13 210 -4 124 -8 147 -37 232 -96 275 -307
470 -585 541 -114 29 -301 27 -412 -4z m456 -65 c78 -27 190 -83 190 -96 0 -2
-24 -17 -52 -33 -29 -16 -120 -68 -203 -116 -222 -130 -444 -256 -450 -256 -3
0 -5 110 -5 244 l0 244 32 13 c65 27 154 38 273 35 103 -3 133 -8 215 -35z
m-570 -452 l0 -411 -42 24 c-24 13 -121 69 -216 123 l-174 100 7 43 c9 62 62
186 110 262 52 81 156 183 237 233 34 20 65 37 70 37 4 0 8 -185 8 -411z m878
259 c145 -148 222 -331 222 -530 l0 -67 -147 86 c-82 47 -170 98 -198 114
-185 103 -357 207 -357 214 0 8 398 244 413 245 3 0 33 -28 67 -62z m-439
-278 c56 -33 104 -60 107 -60 3 0 19 -9 35 -21 l29 -20 0 -159 c0 -155 -1
-160 -22 -173 -118 -71 -251 -147 -257 -147 -5 0 -68 35 -142 78 l-134 79 -3
161 -2 162 42 25 c24 14 84 50 133 79 50 30 95 55 102 55 6 1 57 -26 112 -59z
m488 -280 c76 -44 145 -84 152 -89 13 -8 13 -17 3 -61 -31 -136 -106 -269
-210 -375 -54 -56 -178 -145 -201 -145 -8 0 -11 125 -11 411 l0 411 64 -36
c36 -20 127 -72 203 -116z m-1259 16 c241 -134 594 -343 594 -351 0 -5 -47
-35 -103 -68 -57 -32 -150 -86 -207 -119 l-103 -61 -65 64 c-139 137 -224 337
-224 526 0 35 3 63 6 63 3 0 49 -24 102 -54z m942 -470 l0 -244 -42 -16 c-135
-49 -347 -47 -486 4 -66 25 -169 77 -177 89 -3 6 9 18 27 27 18 9 119 66 223
127 105 61 208 120 230 133 22 12 78 45 125 73 47 28 88 50 93 51 4 0 7 -110
7 -244z"/>
</g>
</svg>
